<svg width="166" height="28" viewBox="0 0 166 28" fill="none" xmlns="http://www.w3.org/2000/svg">
<path fill-rule="evenodd" clip-rule="evenodd" d="M40.5123 20.9266L40.5484 20.8378C40.5484 20.8378 40.4968 20.8678 40.3979 20.9212L40.5123 20.9266ZM26.7169 23.7933C26.7169 23.7933 25.0609 23.5147 25.0609 22.0085L25.1572 21.4747L27.4808 20.9266L44.0516 17.022C44.0516 17.022 48.0854 8.22421 32.6935 8.43567C17.3034 8.6475 15.2883 18.3987 15.0751 20.4142C15.0595 20.5668 15.0491 20.7393 15.0476 20.9251L15.2883 21.448C15.2761 23.6973 16.4481 27.5221 26.7486 27.6202C26.7486 27.6202 35.8745 27.3063 38.5308 25.821L40.5127 20.9266H40.3983C39.2966 21.5217 32.3467 25.1306 26.7169 23.7933ZM26.57 15.4397C26.57 15.4397 27.2419 11.4117 31.7841 11.3468C36.3281 11.2814 35.3444 15.1625 35.3444 15.1625L25.3892 20.1735L26.57 15.4397ZM7.64236 0.379761L0 26.9851H10.7234C13.27 18.1169 15.8181 9.24869 18.365 0.379761H7.64236ZM128.036 9.11879L119.842 20.927L119.411 21.5494L119.335 20.927L117.885 9.11879H107.946L109.377 20.927L110.112 26.9851H126.2L130.332 20.927L138.384 9.11879H128.036ZM92.7931 8.52986C76.9829 9.11879 75.9173 18.7823 75.9173 18.7823C75.9173 18.7823 75.5453 19.695 75.5518 20.9266C75.5702 23.6558 77.4315 27.9486 89.1682 27.5434C98.5506 27.219 102.995 23.8727 105.095 20.9237C106.816 18.5088 106.963 16.3577 106.963 16.3577C106.963 16.3577 108.602 7.94057 92.7931 8.52986ZM95.8265 16.3577C95.8265 16.3577 95.6403 18.7859 94.5198 20.9266C93.6202 22.6465 92.1186 24.1772 89.6276 24.1213C89.6276 24.1213 86.7988 24.3422 86.7959 20.9334C86.7959 20.3045 86.8922 19.551 87.1192 18.6517L88.1841 15.5053C88.1841 15.5053 89.0365 11.756 92.7927 11.8209C96.5486 11.8873 96.0888 14.7854 95.8265 16.3577ZM72.1618 9.57852C72.1618 9.57852 67.1595 8.20255 60.2389 8.59409C53.3186 8.98707 48.382 9.9051 48.382 9.9051L45.1115 20.9266L43.3144 26.9848H54.3189L56.1413 20.9266L58.8611 11.887C58.8611 11.887 65.3729 10.9531 64.5205 14.3112L62.5942 20.9266L60.8296 26.9848H71.6364L73.4458 20.9266L75.4583 14.1806C75.4583 14.1806 76.7704 10.4951 72.1618 9.57852ZM151.782 8.52986C135.973 9.11879 134.906 18.7823 134.906 18.7823C134.906 18.7823 134.534 19.695 134.542 20.9266C134.558 23.6558 136.42 27.9486 148.157 27.5434C157.541 27.219 161.984 23.8727 164.084 20.9237C165.805 18.5088 165.952 16.3577 165.952 16.3577C165.952 16.3577 167.592 7.94057 151.782 8.52986ZM154.816 16.3577C154.816 16.3577 154.631 18.7859 153.509 20.9266C152.609 22.6465 151.108 24.1772 148.618 24.1213C148.618 24.1213 145.788 24.3422 145.785 20.9334C145.785 20.3045 145.883 19.551 146.11 18.6517L147.174 15.5053C147.174 15.5053 148.026 11.756 151.782 11.8209C155.538 11.8873 155.08 14.7854 154.816 16.3577Z" fill="#00387D"/>
</svg>
