<svg width="39" height="38" viewBox="0 0 39 38" fill="none" xmlns="http://www.w3.org/2000/svg">
<path d="M19.5 0C8.76316 0 0 8.53847 0 19C0 29.4616 8.76316 38 19.5 38C30.2368 38 39 29.4616 39 19C39 8.53847 30.2368 0 19.5 0ZM5.44737 19C5.44737 15.0769 7.18421 11.4615 9.94737 9.00001C11.0526 8.00001 12.9474 8.30769 13.7368 9.61539L18.6316 17.8462C19.1053 18.6154 19.1053 19.5385 18.6316 20.3077L13.7368 28.5385C12.9474 29.9231 11.0526 30.1538 9.86842 29.0769C7.18421 26.4615 5.44737 22.9231 5.44737 19ZM25.2632 28.3846L20.3684 20.1539C19.8947 19.3846 19.8947 18.4615 20.3684 17.6923L25.2632 9.46153C26.0526 8.15384 27.8684 7.84615 29.0526 8.84615C31.8158 11.3077 33.5526 14.9231 33.5526 18.8462C33.5526 22.7692 31.8158 26.3846 29.0526 28.8462C27.8684 30.0769 26.0526 29.7692 25.2632 28.3846Z" fill="#0083E3"/>
</svg>
