<svg width="158" height="36" viewBox="0 0 158 36" fill="none" xmlns="http://www.w3.org/2000/svg">
<path d="M49.3412 5.86563C49.0518 4.79609 48.4872 3.82105 47.7037 3.0376C46.9202 2.25415 45.9451 1.68963 44.8755 1.40026C40.9598 0.33252 25.2017 0.33252 25.2017 0.33252C25.2017 0.33252 9.44297 0.364922 5.52783 1.43266C4.45833 1.72208 3.48331 2.28662 2.69986 3.07006C1.91641 3.85351 1.35187 4.82853 1.06246 5.89803C-0.121929 12.8553 -0.581427 23.4558 1.09486 30.1344C1.38428 31.2039 1.94882 32.179 2.73226 32.9624C3.51571 33.7459 4.49073 34.3104 5.56023 34.5998C9.47568 35.6676 25.2341 35.6676 25.2341 35.6676C25.2341 35.6676 40.9925 35.6676 44.9079 34.5998C45.9774 34.3104 46.9524 33.7459 47.7359 32.9624C48.5193 32.179 49.0839 31.2039 49.3733 30.1344C50.6222 23.1676 51.0073 12.5736 49.3409 5.86593L49.3412 5.86563Z" fill="#FF0000"/>
<path d="M20.1861 25.5719L33.2587 18.0002L20.1861 10.4282V25.5719Z" fill="white"/>
<path d="M151.593 10.5902C153.308 10.5902 154.602 10.9136 155.508 11.5284C156.414 12.1434 157.062 13.1139 157.45 14.4409C157.838 15.7675 158 17.5793 158 19.9092V23.6953H149.684V24.86L149.814 28.0635C149.91 28.7754 150.072 29.2932 150.331 29.6167C150.59 29.9404 151.011 30.1021 151.561 30.1021C152.305 30.1021 152.823 29.8111 153.082 29.2287C153.373 28.6461 153.502 27.6753 153.535 26.3486L157.838 26.6075C157.871 26.8016 157.871 27.0606 157.871 27.384C157.871 29.4225 157.32 30.9436 156.188 31.9465C155.055 32.9495 153.502 33.4673 151.464 33.4673C149.004 33.4673 147.29 32.6909 146.319 31.1701C145.348 29.6491 144.83 27.2544 144.83 24.0511V20.1357C144.94 14.635 145.908 10.6063 151.593 10.5902ZM91.7629 11.0109V27.2223C91.7629 28.1931 91.8598 28.905 92.0863 29.3256C92.5458 30.2252 93.7366 29.9953 94.3838 29.5522C94.7574 29.2996 95.0585 28.9539 95.2574 28.5492V11.0105H100.208V33.1112H96.3251L95.9045 30.3931H95.8076C94.7399 32.4317 93.154 33.467 91.0509 33.467C87.8138 33.459 87.0216 31.1266 86.8331 28.7578L86.8207 28.5909C86.7974 28.2321 86.7837 27.8728 86.7797 27.5133V11.0109H91.7626H91.7629ZM117.294 11.0109V27.2223C117.294 28.1931 117.39 28.905 117.617 29.3256C118.077 30.2252 119.267 29.9953 119.914 29.5522C120.288 29.2996 120.589 28.9539 120.788 28.5492V11.0105H125.739V33.1112H121.856L121.435 30.3931H121.338C120.271 32.4317 118.685 33.467 116.582 33.467C113.344 33.459 112.552 31.1266 112.364 28.7578L112.351 28.5909C112.328 28.2321 112.314 27.8728 112.31 27.5133V11.0109H117.294ZM77.3956 10.5902C79.0136 10.5902 80.3402 10.9136 81.3111 11.5932C82.2816 12.2727 83.0259 13.3083 83.4789 14.7319C83.932 16.1557 84.1585 18.0647 84.1585 20.427V23.6302C84.1585 25.9925 83.932 27.8694 83.4789 29.2929C83.0259 30.7171 82.314 31.7524 81.3111 32.432C80.3081 33.0791 78.9488 33.4349 77.2663 33.4349C75.5187 33.4673 74.1597 33.1115 73.1568 32.4644C72.1538 31.7848 71.4416 30.7492 71.0213 29.3256C70.6004 27.9018 70.4062 26.0249 70.4062 23.6629V20.4591C70.4062 18.0968 70.6328 16.1554 71.1182 14.7316C71.6036 13.2756 72.3476 12.24 73.3833 11.5932C74.4186 10.9457 75.7453 10.5899 77.3956 10.5899V10.5902ZM133.505 1.724V13.3728H133.537C133.99 12.5316 134.573 11.8521 135.382 11.3343C136.137 10.8262 137.028 10.5558 137.938 10.5578C139.135 10.5578 140.041 10.8812 140.721 11.496C141.4 12.1434 141.886 13.1463 142.177 14.5378C142.459 15.8857 142.62 17.7499 142.629 20.1008L142.63 20.3301V23.8246C142.63 27.0927 142.209 29.5198 141.432 31.0729C140.624 32.6261 139.394 33.4028 137.711 33.4028C136.773 33.4028 135.932 33.1763 135.155 32.7557C134.469 32.3555 133.899 31.7816 133.504 31.0917L133.44 30.9757H133.343L132.825 33.0791H128.716V1.72431H133.505V1.724ZM113.701 2.85654V6.86858H108.783V33.1112H103.93V6.86889H98.9787V2.85685H113.702L113.701 2.85654ZM60.3427 2.85654L60.3457 2.86889C60.393 3.07904 61.0472 5.98755 61.7668 9.37623L61.8236 9.6447L61.9094 10.0505L61.9668 10.323L61.9955 10.4597L62.0529 10.7337L62.0816 10.8711L62.1387 11.146L62.222 11.5481C62.708 13.8947 63.1719 16.248 63.4493 17.9354H63.5789C63.8446 16.4218 64.2307 14.4847 64.6423 12.5069L64.7503 11.9903C64.8046 11.7317 64.8589 11.4731 64.9139 11.2151L64.9984 10.8149C65.5574 8.19395 66.1332 5.5766 66.7256 2.96301L66.7349 2.92135L66.7497 2.85654H71.7005L65.973 23.2747V33.0791H61.087V23.3068H61.0546L55.3919 2.85623L60.3427 2.85654ZM77.2984 14.02C76.6189 14.02 76.1659 14.3761 75.8749 15.1204C75.5835 15.8644 75.4542 16.997 75.4542 18.5828V25.475C75.4542 27.093 75.5835 28.29 75.8425 29.0022C76.1014 29.7139 76.5868 30.07 77.2984 30.07C77.9779 30.07 78.4634 29.7139 78.7547 29.0022C79.046 28.29 79.1753 27.093 79.1753 25.475V18.5825C79.1753 16.997 79.0457 15.832 78.7547 15.1201C78.4634 14.3761 77.9779 14.02 77.2984 14.02ZM134.379 14.6674C133.984 15.0315 133.704 15.4805 133.537 16.0419L133.505 16.1557V28.7106C133.906 29.3901 134.476 29.8432 135.479 29.8756C135.997 29.8756 136.417 29.6815 136.741 29.2932C137.064 28.905 137.291 28.2576 137.42 27.3516C137.544 26.4819 137.609 25.284 137.614 23.7583V20.6859C137.614 18.9387 137.549 17.612 137.452 16.6736C137.323 15.7351 137.162 15.0556 136.87 14.6674C136.307 13.8583 135.091 13.8681 134.379 14.6674ZM151.496 13.9231C150.946 13.9555 150.558 14.1172 150.331 14.4085C150.072 14.7319 149.91 15.2173 149.814 15.9292C149.718 16.6267 149.686 19.0646 149.684 19.1621V20.7507H153.308V19.3497V19.3766C153.306 19.8663 153.296 19.0923 153.274 18.1422L153.27 18.0144C153.25 17.1794 153.22 16.2483 153.179 15.9292C153.082 15.1849 152.92 14.6671 152.661 14.3761C152.402 14.0848 152.014 13.9231 151.496 13.9231H151.496Z" fill="#282828"/>
</svg>
